<svg width="1165" height="338" viewBox="0 0 1165 338" fill="none" xmlns="http://www.w3.org/2000/svg">
<path d="M204.578 4.60313V45.6046C204.902 49.8074 203.864 51.0494 199.714 51.1641H160.102C154.951 51.36 153.573 52.7893 153.5 57.4186V97.0302C154.227 101.52 155.809 102.567 160.102 102.59H199.714C203.991 102.625 204.72 104.049 204.578 107.802V146.023C204.475 150.603 205.622 152.13 209.443 153.32H250.792C254.71 152.173 255.992 150.688 256.004 146.023V107.802C255.876 103.639 257.118 102.683 260.868 102.59H299.785C304.986 102.393 306.761 101.377 306.734 97.0302V57.4186C306.143 53.1662 304.962 51.4239 299.09 51.1641H260.868C256.938 51.357 255.72 50.3179 256.004 45.6046V4.60313C255.234 1.26754 253.979 0.31733 250.792 0.0860109C250.792 0.0860109 213.3 -0.107514 209.443 0.0860109C205.585 0.279536 204.692 2.32782 204.578 4.60313Z" fill="#01DCA2"/>
<path d="M233.5 307.562L223.076 337.792C220.655 263.962 101.114 238.415 44.4762 202.973C26.289 180.875 15.7008 167.71 0 144.946C7.6019 136.635 15.2887 137.996 23.9754 148.768C34.9712 151.94 35.7894 163.014 52.468 173.438L44.4762 161.277C52.7523 150.322 59.7635 163.487 61.1548 164.752C68.0983 173.551 72.4841 179.573 75.1387 183.574C75.553 183.286 76.1982 183.131 77.1384 183.167C131.592 185.294 146.557 208.305 164.353 193.592C150.455 171.006 112.233 139.386 142.463 127.225C145.356 127.016 146.008 127.471 147.675 128.267C168.176 150.158 175.472 167.879 204.66 195.329C216.474 209.228 221.321 223.284 233.5 234.593V307.562Z" fill="#04BBFD"/>
<path d="M226.735 307.562L237.159 337.792C239.579 263.962 359.121 238.415 415.758 202.973C433.946 180.875 444.534 167.71 460.235 144.946C452.633 136.635 444.946 137.996 436.259 148.768C425.263 151.94 424.445 163.014 407.767 173.438L415.758 161.277C407.482 150.322 400.471 163.487 399.08 164.752C392.136 173.551 387.751 179.573 385.096 183.574C384.682 183.286 384.036 183.131 383.096 183.167C328.643 185.294 313.678 208.305 295.881 193.592C309.78 171.006 348.002 139.386 317.772 127.225C314.879 127.016 314.227 127.471 312.56 128.267C292.059 150.158 284.762 167.879 255.575 195.329C243.761 209.228 238.913 223.284 226.735 234.593V307.562Z" fill="#04BBFD"/>
<path d="M548.068 132V62.1818H562.83V90.9886H592.795V62.1818H607.523V132H592.795V103.159H562.83V132H548.068ZM643.284 133.023C637.898 133.023 633.261 131.932 629.375 129.75C625.511 127.545 622.534 124.432 620.443 120.409C618.352 116.364 617.307 111.58 617.307 106.057C617.307 100.67 618.352 95.9432 620.443 91.875C622.534 87.8068 625.477 84.6364 629.273 82.3636C633.091 80.0909 637.568 78.9545 642.705 78.9545C646.159 78.9545 649.375 79.5114 652.352 80.625C655.352 81.7159 657.966 83.3636 660.193 85.5682C662.443 87.7727 664.193 90.5455 665.443 93.8864C666.693 97.2045 667.318 101.091 667.318 105.545V109.534H623.102V100.534H653.648C653.648 98.4432 653.193 96.5909 652.284 94.9773C651.375 93.3636 650.114 92.1023 648.5 91.1932C646.909 90.2614 645.057 89.7955 642.943 89.7955C640.739 89.7955 638.784 90.3068 637.08 91.3295C635.398 92.3295 634.08 93.6818 633.125 95.3864C632.17 97.0682 631.682 98.9432 631.659 101.011V109.568C631.659 112.159 632.136 114.398 633.091 116.284C634.068 118.17 635.443 119.625 637.216 120.648C638.989 121.67 641.091 122.182 643.523 122.182C645.136 122.182 646.614 121.955 647.955 121.5C649.295 121.045 650.443 120.364 651.398 119.455C652.352 118.545 653.08 117.432 653.58 116.114L667.011 117C666.33 120.227 664.932 123.045 662.818 125.455C660.727 127.841 658.023 129.705 654.705 131.045C651.409 132.364 647.602 133.023 643.284 133.023ZM691.727 132.989C688.386 132.989 685.409 132.409 682.795 131.25C680.182 130.068 678.114 128.33 676.591 126.034C675.091 123.716 674.341 120.83 674.341 117.375C674.341 114.466 674.875 112.023 675.943 110.045C677.011 108.068 678.466 106.477 680.307 105.273C682.148 104.068 684.239 103.159 686.58 102.545C688.943 101.932 691.42 101.5 694.011 101.25C697.057 100.932 699.511 100.636 701.375 100.364C703.239 100.068 704.591 99.6364 705.432 99.0682C706.273 98.5 706.693 97.6591 706.693 96.5455V96.3409C706.693 94.1818 706.011 92.5114 704.648 91.3295C703.307 90.1477 701.398 89.5568 698.92 89.5568C696.307 89.5568 694.227 90.1364 692.682 91.2955C691.136 92.4318 690.114 93.8636 689.614 95.5909L676.182 94.5C676.864 91.3182 678.205 88.5682 680.205 86.25C682.205 83.9091 684.784 82.1136 687.943 80.8636C691.125 79.5909 694.807 78.9545 698.989 78.9545C701.898 78.9545 704.682 79.2955 707.341 79.9773C710.023 80.6591 712.398 81.7159 714.466 83.1477C716.557 84.5795 718.205 86.4205 719.409 88.6705C720.614 90.8977 721.216 93.5682 721.216 96.6818V132H707.443V124.739H707.034C706.193 126.375 705.068 127.818 703.659 129.068C702.25 130.295 700.557 131.261 698.58 131.966C696.602 132.648 694.318 132.989 691.727 132.989ZM695.886 122.966C698.023 122.966 699.909 122.545 701.545 121.705C703.182 120.841 704.466 119.682 705.398 118.227C706.33 116.773 706.795 115.125 706.795 113.284V107.727C706.341 108.023 705.716 108.295 704.92 108.545C704.148 108.773 703.273 108.989 702.295 109.193C701.318 109.375 700.341 109.545 699.364 109.705C698.386 109.841 697.5 109.966 696.705 110.08C695 110.33 693.511 110.727 692.239 111.273C690.966 111.818 689.977 112.557 689.273 113.489C688.568 114.398 688.216 115.534 688.216 116.898C688.216 118.875 688.932 120.386 690.364 121.432C691.818 122.455 693.659 122.966 695.886 122.966ZM747.006 62.1818V132H732.483V62.1818H747.006ZM786.491 79.6364V90.5455H754.957V79.6364H786.491ZM762.116 67.0909H776.639V115.909C776.639 117.25 776.844 118.295 777.253 119.045C777.662 119.773 778.23 120.284 778.957 120.58C779.707 120.875 780.571 121.023 781.548 121.023C782.23 121.023 782.912 120.966 783.594 120.852C784.276 120.716 784.798 120.614 785.162 120.545L787.446 131.352C786.719 131.58 785.696 131.841 784.378 132.136C783.06 132.455 781.457 132.648 779.571 132.716C776.071 132.852 773.003 132.386 770.366 131.318C767.753 130.25 765.719 128.591 764.264 126.341C762.81 124.091 762.094 121.25 762.116 117.818V67.0909ZM811.599 101.727V132H797.077V62.1818H811.19V88.875H811.804C812.986 85.7841 814.895 83.3636 817.531 81.6136C820.168 79.8409 823.474 78.9545 827.452 78.9545C831.088 78.9545 834.259 79.75 836.963 81.3409C839.69 82.9091 841.804 85.1705 843.304 88.125C844.827 91.0568 845.577 94.5682 845.554 98.6591V132H831.031V101.25C831.054 98.0227 830.236 95.5114 828.577 93.7159C826.94 91.9205 824.645 91.0227 821.69 91.0227C819.713 91.0227 817.963 91.4432 816.44 92.2841C814.94 93.125 813.759 94.3523 812.895 95.9659C812.054 97.5568 811.622 99.4773 811.599 101.727ZM876.815 74.3523V62.1818H934.156V74.3523H912.781V132H898.19V74.3523H876.815ZM959.597 133.023C954.21 133.023 949.574 131.932 945.688 129.75C941.824 127.545 938.847 124.432 936.756 120.409C934.665 116.364 933.619 111.58 933.619 106.057C933.619 100.67 934.665 95.9432 936.756 91.875C938.847 87.8068 941.79 84.6364 945.585 82.3636C949.403 80.0909 953.881 78.9545 959.017 78.9545C962.472 78.9545 965.688 79.5114 968.665 80.625C971.665 81.7159 974.278 83.3636 976.506 85.5682C978.756 87.7727 980.506 90.5455 981.756 93.8864C983.006 97.2045 983.631 101.091 983.631 105.545V109.534H939.415V100.534H969.96C969.96 98.4432 969.506 96.5909 968.597 94.9773C967.688 93.3636 966.426 92.1023 964.812 91.1932C963.222 90.2614 961.369 89.7955 959.256 89.7955C957.051 89.7955 955.097 90.3068 953.392 91.3295C951.71 92.3295 950.392 93.6818 949.438 95.3864C948.483 97.0682 947.994 98.9432 947.972 101.011V109.568C947.972 112.159 948.449 114.398 949.403 116.284C950.381 118.17 951.756 119.625 953.528 120.648C955.301 121.67 957.403 122.182 959.835 122.182C961.449 122.182 962.926 121.955 964.267 121.5C965.608 121.045 966.756 120.364 967.71 119.455C968.665 118.545 969.392 117.432 969.892 116.114L983.324 117C982.642 120.227 981.244 123.045 979.131 125.455C977.04 127.841 974.335 129.705 971.017 131.045C967.722 132.364 963.915 133.023 959.597 133.023ZM1016.77 133.023C1011.4 133.023 1006.79 131.886 1002.93 129.614C999.085 127.318 996.131 124.136 994.062 120.068C992.017 116 990.994 111.318 990.994 106.023C990.994 100.659 992.028 95.9545 994.097 91.9091C996.188 87.8409 999.153 84.6705 1002.99 82.3977C1006.84 80.1023 1011.4 78.9545 1016.7 78.9545C1021.27 78.9545 1025.27 79.7841 1028.7 81.4432C1032.13 83.1023 1034.85 85.4318 1036.85 88.4318C1038.85 91.4318 1039.95 94.9545 1040.15 99H1026.45C1026.06 96.3864 1025.04 94.2841 1023.38 92.6932C1021.74 91.0795 1019.6 90.2727 1016.94 90.2727C1014.69 90.2727 1012.72 90.8864 1011.04 92.1136C1009.38 93.3182 1008.09 95.0795 1007.15 97.3977C1006.22 99.7159 1005.76 102.523 1005.76 105.818C1005.76 109.159 1006.21 112 1007.12 114.341C1008.05 116.682 1009.36 118.466 1011.04 119.693C1012.72 120.92 1014.69 121.534 1016.94 121.534C1018.6 121.534 1020.09 121.193 1021.4 120.511C1022.74 119.83 1023.85 118.841 1024.71 117.545C1025.6 116.227 1026.18 114.648 1026.45 112.807H1040.15C1039.93 116.807 1038.84 120.33 1036.88 123.375C1034.95 126.398 1032.28 128.761 1028.87 130.466C1025.46 132.17 1021.43 133.023 1016.77 133.023ZM1063.97 101.727V132H1049.45V62.1818H1063.57V88.875H1064.18C1065.36 85.7841 1067.27 83.3636 1069.91 81.6136C1072.54 79.8409 1075.85 78.9545 1079.83 78.9545C1083.46 78.9545 1086.63 79.75 1089.34 81.3409C1092.07 82.9091 1094.18 85.1705 1095.68 88.125C1097.2 91.0568 1097.95 94.5682 1097.93 98.6591V132H1083.41V101.25C1083.43 98.0227 1082.61 95.5114 1080.95 93.7159C1079.32 91.9205 1077.02 91.0227 1074.07 91.0227C1072.09 91.0227 1070.34 91.4432 1068.82 92.2841C1067.32 93.125 1066.13 94.3523 1065.27 95.9659C1064.43 97.5568 1064 99.4773 1063.97 101.727Z" fill="white"/>
<path d="M593.072 226.564C592.184 229.919 590.506 232.287 588.04 233.668C585.622 235.049 582.934 235.74 579.974 235.74C574.498 235.74 570.403 234.087 567.69 230.782C564.976 227.427 563.62 222.963 563.62 217.388V215.908C563.62 210.383 564.927 205.967 567.542 202.662C570.156 199.307 573.955 197.63 578.938 197.63C581.602 197.63 584.019 198.173 586.19 199.258C588.41 200.343 590.161 201.947 591.444 204.068C592.776 206.189 593.442 208.829 593.442 211.986C593.442 213.466 593.294 215.02 592.998 216.648H570.28V218.868C570.28 224.048 571.069 227.773 572.648 230.042C574.276 232.262 576.89 233.372 580.492 233.372C582.761 233.372 584.636 232.78 586.116 231.596C587.645 230.412 588.656 228.365 589.15 225.454L593.072 226.564ZM578.938 199.998C576.027 199.998 573.856 201.108 572.426 203.328C570.995 205.548 570.28 209.199 570.28 214.28H586.93V214.058C587.028 213.417 587.102 212.8 587.152 212.208C587.201 211.567 587.226 210.999 587.226 210.506C587.226 206.806 586.461 204.142 584.932 202.514C583.402 200.837 581.404 199.998 578.938 199.998ZM663.845 233.15V235H652.449V229.154C650.919 231.423 649.217 233.101 647.343 234.186C645.517 235.222 643.47 235.74 641.201 235.74C636.958 235.74 633.653 234.161 631.285 231.004C628.966 227.797 627.807 223.283 627.807 217.462V215.982C627.807 210.407 629.163 205.967 631.877 202.662C634.639 199.307 638.413 197.63 643.199 197.63C646.701 197.63 649.661 198.715 652.079 200.886V186.234C652.079 184.507 652.005 183.496 651.857 183.2C651.709 182.904 651.24 182.707 650.451 182.608L646.381 182.238V180.24H658.147V229.006C658.147 230.733 658.221 231.744 658.369 232.04C658.517 232.336 658.985 232.533 659.775 232.632L663.845 233.15ZM634.467 219.682C634.467 224.319 635.133 227.723 636.465 229.894C637.846 232.065 639.745 233.15 642.163 233.15C643.741 233.15 645.369 232.657 647.047 231.67C648.724 230.683 650.401 228.685 652.079 225.676V204.512C649.908 201.601 647.071 200.146 643.569 200.146C640.411 200.146 638.093 201.355 636.613 203.772C635.182 206.189 634.467 209.519 634.467 213.762V219.682ZM733.262 233.076V235H721.866V229.08C720.14 231.399 718.166 233.101 715.946 234.186C713.776 235.222 711.605 235.74 709.434 235.74C705.932 235.74 703.194 234.63 701.22 232.41C699.296 230.141 698.334 226.959 698.334 222.864V204.364C698.334 202.637 698.26 201.626 698.112 201.33C697.964 201.034 697.496 200.837 696.706 200.738L692.636 200.368V198.37H704.402V222.79C704.402 226.441 704.945 229.031 706.03 230.56C707.165 232.04 708.793 232.78 710.914 232.78C712.493 232.78 714.22 232.287 716.094 231.3C718.018 230.313 719.819 228.414 721.496 225.602V204.364C721.496 202.637 721.422 201.626 721.274 201.33C721.126 200.985 720.658 200.787 719.868 200.738L714.318 200.368V198.37H727.564V229.006C727.564 230.733 727.638 231.744 727.786 232.04C727.934 232.336 728.403 232.533 729.192 232.632L733.262 233.076ZM780.447 199.998C777.734 199.998 775.612 201.133 774.083 203.402C772.603 205.622 771.863 209.297 771.863 214.428V218.868C771.863 224.048 772.603 227.773 774.083 230.042C775.612 232.262 778.079 233.372 781.483 233.372C783.802 233.372 785.676 232.78 787.107 231.596C788.538 230.412 789.5 228.365 789.993 225.454L793.915 226.564C793.027 229.919 791.399 232.287 789.031 233.668C786.663 235.049 784.024 235.74 781.113 235.74C775.785 235.74 771.789 234.087 769.125 230.782C766.51 227.427 765.203 222.963 765.203 217.388V215.908C765.203 210.383 766.51 205.967 769.125 202.662C771.74 199.307 775.514 197.63 780.447 197.63C783.604 197.63 786.219 198.247 788.291 199.48C790.412 200.713 791.917 202.391 792.805 204.512C793.693 206.584 793.94 208.878 793.545 211.394L787.699 212.282C788.242 208.335 787.872 205.301 786.589 203.18C785.356 201.059 783.308 199.998 780.447 199.998ZM855.924 235.518C852.076 235.518 849.806 233.742 849.116 230.19C847.389 232.163 845.49 233.594 843.418 234.482C841.346 235.321 839.298 235.74 837.276 235.74C833.822 235.74 831.282 234.778 829.654 232.854C828.026 230.93 827.212 228.611 827.212 225.898C827.212 222.987 828.198 220.693 830.172 219.016C832.194 217.289 835.672 216.426 840.606 216.426H848.968V210.432C848.968 206.485 848.277 203.772 846.896 202.292C845.564 200.763 843.738 199.998 841.42 199.998C839.94 199.998 838.608 200.294 837.424 200.886C836.24 201.478 835.376 202.563 834.834 204.142C834.34 205.671 834.291 207.916 834.686 210.876L828.84 209.988C828.593 207.669 828.889 205.597 829.728 203.772C830.616 201.897 832.046 200.417 834.02 199.332C836.042 198.197 838.558 197.63 841.568 197.63C845.169 197.63 847.932 198.247 849.856 199.48C851.78 200.664 853.112 202.218 853.852 204.142C854.641 206.066 855.036 208.163 855.036 210.432V227.082C855.036 229.598 855.307 231.177 855.85 231.818C856.442 232.459 857.083 232.78 857.774 232.78C858.218 232.78 858.686 232.681 859.18 232.484C859.673 232.237 860.216 231.867 860.808 231.374L862.14 233.224C861.4 233.865 860.512 234.408 859.476 234.852C858.489 235.296 857.305 235.518 855.924 235.518ZM839.348 232.632C840.729 232.632 842.209 232.262 843.788 231.522C845.416 230.733 847.142 229.179 848.968 226.86V218.794H841.42C838.657 218.794 836.634 219.361 835.352 220.496C834.118 221.581 833.502 223.283 833.502 225.602C833.502 227.822 833.97 229.549 834.908 230.782C835.894 232.015 837.374 232.632 839.348 232.632ZM914.979 227.452C914.239 230.313 913.079 232.41 911.501 233.742C909.922 235.074 907.899 235.74 905.433 235.74C903.065 235.74 901.141 235.222 899.661 234.186C898.181 233.101 897.095 231.695 896.405 229.968C895.714 228.241 895.369 226.441 895.369 224.566V204.364C895.369 202.637 895.295 201.626 895.147 201.33C895.048 201.034 894.579 200.837 893.741 200.738L889.671 200.368V198.37H895.369V188.676L901.437 187.418V198.37H913.499V200.738H901.437V225.158C901.437 228.266 901.856 230.412 902.695 231.596C903.583 232.78 904.742 233.372 906.173 233.372C907.603 233.372 908.689 232.829 909.429 231.744C910.218 230.659 910.785 228.883 911.131 226.416L914.979 227.452ZM952.994 190.082C951.81 190.082 950.823 189.712 950.034 188.972C949.294 188.183 948.924 187.171 948.924 185.938C948.924 184.754 949.294 183.792 950.034 183.052C950.823 182.312 951.81 181.942 952.994 181.942C954.178 181.942 955.14 182.312 955.88 183.052C956.669 183.792 957.064 184.754 957.064 185.938C957.064 187.171 956.669 188.183 955.88 188.972C955.14 189.712 954.178 190.082 952.994 190.082ZM944.336 200.368V198.37H956.102V229.006C956.102 230.733 956.176 231.744 956.324 232.04C956.472 232.336 956.94 232.533 957.73 232.632L961.8 233.076V235H944.336V233.076L948.406 232.632C949.195 232.533 949.664 232.336 949.812 232.04C949.96 231.744 950.034 230.733 950.034 229.006V204.364C950.034 202.637 949.96 201.626 949.812 201.33C949.664 201.034 949.195 200.837 948.406 200.738L944.336 200.368ZM1025.65 215.908V217.388C1025.65 222.963 1024.24 227.427 1021.43 230.782C1018.67 234.087 1014.72 235.74 1009.59 235.74C1004.51 235.74 1000.56 234.087 997.751 230.782C994.988 227.427 993.607 222.963 993.607 217.388V215.908C993.607 210.383 994.988 205.967 997.751 202.662C1000.51 199.307 1004.46 197.63 1009.59 197.63C1014.72 197.63 1018.67 199.307 1021.43 202.662C1024.24 205.967 1025.65 210.383 1025.65 215.908ZM1018.99 214.428C1018.99 209.297 1018.18 205.622 1016.55 203.402C1014.97 201.133 1012.65 199.998 1009.59 199.998C1006.58 199.998 1004.26 201.133 1002.64 203.402C1001.06 205.622 1000.27 209.297 1000.27 214.428V218.868C1000.27 224.048 1001.06 227.773 1002.64 230.042C1004.26 232.262 1006.58 233.372 1009.59 233.372C1012.65 233.372 1014.97 232.262 1016.55 230.042C1018.18 227.773 1018.99 224.048 1018.99 218.868V214.428ZM1099.33 233.076V235H1081.86V233.076L1085.93 232.632C1086.72 232.533 1087.19 232.336 1087.34 232.04C1087.49 231.744 1087.56 230.733 1087.56 229.006V210.58C1087.56 206.929 1086.97 204.364 1085.78 202.884C1084.6 201.355 1082.9 200.59 1080.68 200.59C1079.05 200.59 1077.25 201.083 1075.28 202.07C1073.3 203.057 1071.45 204.981 1069.73 207.842V229.006C1069.73 230.733 1069.8 231.744 1069.95 232.04C1070.1 232.336 1070.57 232.533 1071.35 232.632L1075.42 233.076V235H1057.96V233.076L1062.03 232.632C1062.82 232.533 1063.29 232.336 1063.44 232.04C1063.58 231.744 1063.66 230.733 1063.66 229.006V204.364C1063.66 202.637 1063.58 201.626 1063.44 201.33C1063.29 201.034 1062.82 200.837 1062.03 200.738L1057.96 200.368V198.37H1069.36V204.364C1071.13 201.996 1073.13 200.294 1075.35 199.258C1077.62 198.173 1079.89 197.63 1082.16 197.63C1085.81 197.63 1088.62 198.765 1090.59 201.034C1092.62 203.254 1093.63 206.411 1093.63 210.506V229.006C1093.63 230.733 1093.7 231.744 1093.85 232.04C1094 232.336 1094.47 232.533 1095.26 232.632L1099.33 233.076Z" fill="white"/>
</svg>
