<svg width="27" height="27" viewBox="0 0 27 27" fill="none" xmlns="http://www.w3.org/2000/svg">
<path d="M13.3333 0.000305176C5.98133 0.000305176 0 5.98164 0 13.3336V18.8576C0 20.223 1.196 21.3336 2.66667 21.3336H4C4.35362 21.3336 4.69276 21.1932 4.94281 20.9431C5.19286 20.6931 5.33333 20.3539 5.33333 20.0003V13.143C5.33333 12.7894 5.19286 12.4502 4.94281 12.2002C4.69276 11.9501 4.35362 11.8096 4 11.8096H2.78933C3.53067 6.64964 7.97067 2.66697 13.3333 2.66697C18.696 2.66697 23.136 6.64964 23.8773 11.8096H22.6667C22.313 11.8096 21.9739 11.9501 21.7239 12.2002C21.4738 12.4502 21.3333 12.7894 21.3333 13.143V21.3336C21.3333 22.8043 20.1373 24.0003 18.6667 24.0003H16V22.667H10.6667V26.667H18.6667C21.608 26.667 24 24.275 24 21.3336C25.4707 21.3336 26.6667 20.223 26.6667 18.8576V13.3336C26.6667 5.98164 20.6853 0.000305176 13.3333 0.000305176Z" fill="white"/>
</svg>
